STARTFONT 2.1
COMMENT copyright "Copyright (c) 1985,1987 Adobe Systems, Inc., Portions Copyright 1988 Digital Equipment Corp."
COMMENT Modified for ISO 8859-3 by Marko.Rauhamaa@tekelec.com
COMMENT Sorted/cleanup by wedler@users.sourceforge.net
FONT -adobe-helvetica-medium-r-normal--8-80-75-75-p-46-iso8859-3
SIZE 8 72 72
FONTBOUNDINGBOX 11 11 -1 -2
STARTPROPERTIES 25
FONT_ASCENT 8
FONT_DESCENT 2
DEFAULT_CHAR -1
RESOLUTION 75
QUAD_WIDTH 5
X_HEIGHT 5
POINT_SIZE 80
CAP_HEIGHT 6
COPYRIGHT "Copyright (c) 1985,1987 Adobe Systems, Inc., Portions Copyright 1988 Digital Equipment Corp."
FULL_NAME "Adobe Helvetica"
CHARSET_COLLECTIONS "ASCII ISO8859-3 ADOBE-STANDARD"
CHARSET_ENCODING "3"
CHARSET_REGISTRY "ISO8859"
AVERAGE_WIDTH 46
SPACING "P"
RESOLUTION_Y 75
RESOLUTION_X 75
PIXEL_SIZE 8
ADD_STYLE_NAME ""
SLANT "R"
SETWIDTH_NAME "Normal"
WEIGHT_NAME "Medium"
FOUNDRY "Adobe"
FAMILY_NAME "Helvetica"
FONTNAME_REGISTRY ""
ENDPROPERTIES
CHARS 190
STARTCHAR space
ENCODING 32
SWIDTH 42 0
DWIDTH 2 0
BBX 1 1 0 0
BITMAP
00
ENDCHAR
STARTCHAR exclam
ENCODING 33
SWIDTH 42 0
DWIDTH 2 0
BBX 1 6 1 0
BITMAP
80
80
80
80
00
80
ENDCHAR
STARTCHAR quotedbl
ENCODING 34
SWIDTH 42 0
DWIDTH 3 0
BBX 3 3 1 3
BITMAP
a0
a0
a0
ENDCHAR
STARTCHAR numbersign
ENCODING 35
SWIDTH 42 0
DWIDTH 5 0
BBX 5 5 0 0
BITMAP
50
f8
50
f8
50
ENDCHAR
STARTCHAR dollar
ENCODING 36
SWIDTH 42 0
DWIDTH 6 0
BBX 4 7 2 -1
BITMAP
20
70
80
60
10
e0
40
ENDCHAR
STARTCHAR percent
ENCODING 37
SWIDTH 42 0
DWIDTH 7 0
BBX 6 6 1 0
BITMAP
e8
a8
d0
2c
54
5c
ENDCHAR
STARTCHAR ampersand
ENCODING 38
SWIDTH 42 0
DWIDTH 6 0
BBX 5 6 1 0
BITMAP
40
a0
48
a8
b0
58
ENDCHAR
STARTCHAR quoteright
ENCODING 39
SWIDTH 42 0
DWIDTH 2 0
BBX 1 3 1 3
BITMAP
80
80
80
ENDCHAR
STARTCHAR parenleft
ENCODING 40
SWIDTH 42 0
DWIDTH 3 0
BBX 2 7 1 -1
BITMAP
40
80
80
80
80
80
40
ENDCHAR
STARTCHAR parenright
ENCODING 41
SWIDTH 42 0
DWIDTH 3 0
BBX 2 7 1 -1
BITMAP
80
40
40
40
40
40
80
ENDCHAR
STARTCHAR asterisk
ENCODING 42
SWIDTH 42 0
DWIDTH 3 0
BBX 3 3 1 2
BITMAP
40
e0
40
ENDCHAR
STARTCHAR plus
ENCODING 43
SWIDTH 42 0
DWIDTH 5 0
BBX 5 5 1 0
BITMAP
20
20
f8
20
20
ENDCHAR
STARTCHAR comma
ENCODING 44
SWIDTH 42 0
DWIDTH 2 0
BBX 2 3 0 -2
BITMAP
40
40
80
ENDCHAR
STARTCHAR minus
ENCODING 45
SWIDTH 42 0
DWIDTH 6 0
BBX 4 1 2 2
BITMAP
f0
ENDCHAR
STARTCHAR period
ENCODING 46
SWIDTH 42 0
DWIDTH 2 0
BBX 1 1 1 0
BITMAP
80
ENDCHAR
STARTCHAR slash
ENCODING 47
SWIDTH 42 0
DWIDTH 2 0
BBX 2 7 1 -1
BITMAP
40
40
40
80
80
80
80
ENDCHAR
STARTCHAR zero
ENCODING 48
SWIDTH 42 0
DWIDTH 5 0
BBX 4 6 1 0
BITMAP
60
90
90
90
90
60
ENDCHAR
STARTCHAR one
ENCODING 49
SWIDTH 42 0
DWIDTH 5 0
BBX 2 6 2 0
BITMAP
40
c0
40
40
40
40
ENDCHAR
STARTCHAR two
ENCODING 50
SWIDTH 42 0
DWIDTH 5 0
BBX 4 6 1 0
BITMAP
60
90
10
20
40
f0
ENDCHAR
STARTCHAR three
ENCODING 51
SWIDTH 42 0
DWIDTH 5 0
BBX 3 6 2 0
BITMAP
c0
20
c0
20
20
c0
ENDCHAR
STARTCHAR four
ENCODING 52
SWIDTH 42 0
DWIDTH 5 0
BBX 4 6 1 0
BITMAP
20
20
60
f0
20
20
ENDCHAR
STARTCHAR five
ENCODING 53
SWIDTH 42 0
DWIDTH 5 0
BBX 3 6 2 0
BITMAP
e0
80
c0
20
20
c0
ENDCHAR
STARTCHAR six
ENCODING 54
SWIDTH 42 0
DWIDTH 5 0
BBX 4 6 1 0
BITMAP
70
80
e0
90
90
60
ENDCHAR
STARTCHAR seven
ENCODING 55
SWIDTH 42 0
DWIDTH 5 0
BBX 4 6 1 0
BITMAP
f0
10
20
40
40
40
ENDCHAR
STARTCHAR eight
ENCODING 56
SWIDTH 42 0
DWIDTH 5 0
BBX 4 6 1 0
BITMAP
60
90
60
90
90
60
ENDCHAR
STARTCHAR nine
ENCODING 57
SWIDTH 42 0
DWIDTH 5 0
BBX 4 6 1 0
BITMAP
60
90
90
70
10
60
ENDCHAR
STARTCHAR colon
ENCODING 58
SWIDTH 42 0
DWIDTH 2 0
BBX 1 4 1 0
BITMAP
80
00
00
80
ENDCHAR
STARTCHAR semicolon
ENCODING 59
SWIDTH 42 0
DWIDTH 2 0
BBX 2 6 0 -2
BITMAP
40
00
00
40
40
80
ENDCHAR
STARTCHAR less
ENCODING 60
SWIDTH 42 0
DWIDTH 5 0
BBX 3 5 1 0
BITMAP
20
40
80
40
20
ENDCHAR
STARTCHAR equal
ENCODING 61
SWIDTH 42 0
DWIDTH 4 0
BBX 3 3 1 1
BITMAP
e0
00
e0
ENDCHAR
STARTCHAR greater
ENCODING 62
SWIDTH 42 0
DWIDTH 5 0
BBX 3 5 2 0
BITMAP
80
40
20
40
80
ENDCHAR
STARTCHAR question
ENCODING 63
SWIDTH 42 0
DWIDTH 5 0
BBX 3 5 2 0
BITMAP
c0
20
40
00
40
ENDCHAR
STARTCHAR at
ENCODING 64
SWIDTH 42 0
DWIDTH 9 0
BBX 8 7 1 -1
BITMAP
3e
41
99
a5
9e
80
78
ENDCHAR
STARTCHAR A
ENCODING 65
SWIDTH 42 0
DWIDTH 6 0
BBX 5 6 1 0
BITMAP
20
20
50
70
88
88
ENDCHAR
STARTCHAR B
ENCODING 66
SWIDTH 42 0
DWIDTH 6 0
BBX 4 6 2 0
BITMAP
e0
90
e0
90
90
e0
ENDCHAR
STARTCHAR C
ENCODING 67
SWIDTH 42 0
DWIDTH 6 0
BBX 5 6 1 0
BITMAP
70
88
80
80
88
70
ENDCHAR
STARTCHAR D
ENCODING 68
SWIDTH 42 0
DWIDTH 6 0
BBX 5 6 1 0
BITMAP
f0
88
88
88
88
f0
ENDCHAR
STARTCHAR E
ENCODING 69
SWIDTH 42 0
DWIDTH 6 0
BBX 4 6 2 0
BITMAP
f0
80
e0
80
80
f0
ENDCHAR
STARTCHAR F
ENCODING 70
SWIDTH 42 0
DWIDTH 5 0
BBX 4 6 2 0
BITMAP
f0
80
e0
80
80
80
ENDCHAR
STARTCHAR G
ENCODING 71
SWIDTH 42 0
DWIDTH 6 0
BBX 5 6 1 0
BITMAP
70
80
98
88
88
70
ENDCHAR
STARTCHAR H
ENCODING 72
SWIDTH 42 0
DWIDTH 6 0
BBX 5 6 1 0
BITMAP
88
88
f8
88
88
88
ENDCHAR
STARTCHAR I
ENCODING 73
SWIDTH 42 0
DWIDTH 2 0
BBX 1 6 1 0
BITMAP
80
80
80
80
80
80
ENDCHAR
STARTCHAR J
ENCODING 74
SWIDTH 42 0
DWIDTH 4 0
BBX 3 6 1 0
BITMAP
20
20
20
20
a0
40
ENDCHAR
STARTCHAR K
ENCODING 75
SWIDTH 42 0
DWIDTH 6 0
BBX 4 6 2 0
BITMAP
90
a0
c0
e0
90
90
ENDCHAR
STARTCHAR L
ENCODING 76
SWIDTH 42 0
DWIDTH 5 0
BBX 3 6 2 0
BITMAP
80
80
80
80
80
e0
ENDCHAR
STARTCHAR M
ENCODING 77
SWIDTH 42 0
DWIDTH 7 0
BBX 5 6 2 0
BITMAP
88
d8
a8
a8
a8
a8
ENDCHAR
STARTCHAR N
ENCODING 78
SWIDTH 42 0
DWIDTH 6 0
BBX 5 6 1 0
BITMAP
88
c8
a8
a8
98
88
ENDCHAR
STARTCHAR O
ENCODING 79
SWIDTH 42 0
DWIDTH 6 0
BBX 5 6 1 0
BITMAP
70
88
88
88
88
70
ENDCHAR
STARTCHAR P
ENCODING 80
SWIDTH 42 0
DWIDTH 6 0
BBX 4 6 2 0
BITMAP
e0
90
90
e0
80
80
ENDCHAR
STARTCHAR Q
ENCODING 81
SWIDTH 42 0
DWIDTH 6 0
BBX 5 8 1 -2
BITMAP
70
88
88
88
88
70
20
10
ENDCHAR
STARTCHAR R
ENCODING 82
SWIDTH 42 0
DWIDTH 6 0
BBX 4 6 2 0
BITMAP
e0
90
90
e0
90
90
ENDCHAR
STARTCHAR S
ENCODING 83
SWIDTH 42 0
DWIDTH 6 0
BBX 4 6 2 0
BITMAP
70
80
e0
10
10
e0
ENDCHAR
STARTCHAR T
ENCODING 84
SWIDTH 42 0
DWIDTH 4 0
BBX 3 6 1 0
BITMAP
e0
40
40
40
40
40
ENDCHAR
STARTCHAR U
ENCODING 85
SWIDTH 42 0
DWIDTH 6 0
BBX 5 6 1 0
BITMAP
88
88
88
88
88
70
ENDCHAR
STARTCHAR V
ENCODING 86
SWIDTH 42 0
DWIDTH 6 0
BBX 4 6 2 0
BITMAP
90
90
90
90
a0
40
ENDCHAR
STARTCHAR W
ENCODING 87
SWIDTH 42 0
DWIDTH 7 0
BBX 7 6 1 0
BITMAP
92
92
92
6c
48
48
ENDCHAR
STARTCHAR X
ENCODING 88
SWIDTH 42 0
DWIDTH 6 0
BBX 4 6 2 0
BITMAP
90
90
60
60
90
90
ENDCHAR
STARTCHAR Y
ENCODING 89
SWIDTH 42 0
DWIDTH 6 0
BBX 5 6 1 0
BITMAP
c8
48
48
30
20
20
ENDCHAR
STARTCHAR Z
ENCODING 90
SWIDTH 42 0
DWIDTH 6 0
BBX 4 6 2 0
BITMAP
f0
10
20
40
80
f0
ENDCHAR
STARTCHAR bracketleft
ENCODING 91
SWIDTH 42 0
DWIDTH 2 0
BBX 2 7 1 -1
BITMAP
c0
80
80
80
80
80
c0
ENDCHAR
STARTCHAR backslash
ENCODING 92
SWIDTH 42 0
DWIDTH 2 0
BBX 2 7 0 -1
BITMAP
80
80
80
40
40
40
40
ENDCHAR
STARTCHAR bracketright
ENCODING 93
SWIDTH 42 0
DWIDTH 2 0
BBX 2 7 0 -1
BITMAP
c0
40
40
40
40
40
c0
ENDCHAR
STARTCHAR asciicircum
ENCODING 94
SWIDTH 42 0
DWIDTH 5 0
BBX 5 3 0 2
BITMAP
20
50
88
ENDCHAR
STARTCHAR underscore
ENCODING 95
SWIDTH 42 0
DWIDTH 5 0
BBX 5 1 0 -1
BITMAP
f8
ENDCHAR
STARTCHAR quoteleft
ENCODING 96
SWIDTH 42 0
DWIDTH 2 0
BBX 1 3 1 3
BITMAP
80
80
80
ENDCHAR
STARTCHAR a
ENCODING 97
SWIDTH 42 0
DWIDTH 4 0
BBX 4 5 1 0
BITMAP
c0
20
e0
a0
d0
ENDCHAR
STARTCHAR b
ENCODING 98
SWIDTH 42 0
DWIDTH 5 0
BBX 4 7 1 0
BITMAP
80
80
e0
90
90
90
e0
ENDCHAR
STARTCHAR c
ENCODING 99
SWIDTH 42 0
DWIDTH 4 0
BBX 3 5 1 0
BITMAP
60
80
80
80
60
ENDCHAR
STARTCHAR d
ENCODING 100
SWIDTH 42 0
DWIDTH 5 0
BBX 4 7 1 0
BITMAP
10
10
70
90
90
90
70
ENDCHAR
STARTCHAR e
ENCODING 101
SWIDTH 42 0
DWIDTH 4 0
BBX 3 5 1 0
BITMAP
40
a0
e0
80
60
ENDCHAR
STARTCHAR f
ENCODING 102
SWIDTH 42 0
DWIDTH 3 0
BBX 3 7 1 0
BITMAP
20
40
e0
40
40
40
40
ENDCHAR
STARTCHAR g
ENCODING 103
SWIDTH 42 0
DWIDTH 5 0
BBX 4 6 1 -1
BITMAP
70
90
90
70
10
60
ENDCHAR
STARTCHAR h
ENCODING 104
SWIDTH 42 0
DWIDTH 5 0
BBX 4 7 1 0
BITMAP
80
80
e0
90
90
90
90
ENDCHAR
STARTCHAR i
ENCODING 105
SWIDTH 42 0
DWIDTH 2 0
BBX 1 7 1 0
BITMAP
80
00
80
80
80
80
80
ENDCHAR
STARTCHAR j
ENCODING 106
SWIDTH 42 0
DWIDTH 2 0
BBX 2 9 0 -2
BITMAP
40
00
40
40
40
40
40
40
80
ENDCHAR
STARTCHAR k
ENCODING 107
SWIDTH 42 0
DWIDTH 4 0
BBX 3 7 1 0
BITMAP
80
80
a0
c0
c0
a0
a0
ENDCHAR
STARTCHAR l
ENCODING 108
SWIDTH 42 0
DWIDTH 2 0
BBX 1 7 1 0
BITMAP
80
80
80
80
80
80
80
ENDCHAR
STARTCHAR m
ENCODING 109
SWIDTH 42 0
DWIDTH 6 0
BBX 5 5 1 0
BITMAP
f0
a8
a8
a8
a8
ENDCHAR
STARTCHAR n
ENCODING 110
SWIDTH 42 0
DWIDTH 5 0
BBX 4 5 1 0
BITMAP
e0
90
90
90
90
ENDCHAR
STARTCHAR o
ENCODING 111
SWIDTH 42 0
DWIDTH 5 0
BBX 4 5 1 0
BITMAP
60
90
90
90
60
ENDCHAR
STARTCHAR p
ENCODING 112
SWIDTH 42 0
DWIDTH 5 0
BBX 4 6 1 -1
BITMAP
e0
90
90
90
e0
80
ENDCHAR
STARTCHAR q
ENCODING 113
SWIDTH 42 0
DWIDTH 5 0
BBX 4 6 1 -1
BITMAP
70
90
90
90
70
10
ENDCHAR
STARTCHAR r
ENCODING 114
SWIDTH 42 0
DWIDTH 3 0
BBX 3 5 1 0
BITMAP
a0
c0
80
80
80
ENDCHAR
STARTCHAR s
ENCODING 115
SWIDTH 42 0
DWIDTH 4 0
BBX 3 5 1 0
BITMAP
60
80
60
20
c0
ENDCHAR
STARTCHAR t
ENCODING 116
SWIDTH 42 0
DWIDTH 3 0
BBX 3 7 1 0
BITMAP
40
40
e0
40
40
40
40
ENDCHAR
STARTCHAR u
ENCODING 117
SWIDTH 42 0
DWIDTH 4 0
BBX 3 5 1 0
BITMAP
a0
a0
a0
a0
60
ENDCHAR
STARTCHAR v
ENCODING 118
SWIDTH 42 0
DWIDTH 5 0
BBX 4 5 1 0
BITMAP
90
90
90
a0
40
ENDCHAR
STARTCHAR w
ENCODING 119
SWIDTH 42 0
DWIDTH 6 0
BBX 5 5 1 0
BITMAP
a8
a8
a8
50
50
ENDCHAR
STARTCHAR x
ENCODING 120
SWIDTH 42 0
DWIDTH 5 0
BBX 4 5 1 0
BITMAP
90
90
60
90
90
ENDCHAR
STARTCHAR y
ENCODING 121
SWIDTH 42 0
DWIDTH 4 0
BBX 4 6 1 -1
BITMAP
90
90
90
60
40
80
ENDCHAR
STARTCHAR z
ENCODING 122
SWIDTH 42 0
DWIDTH 4 0
BBX 3 5 1 0
BITMAP
e0
20
40
80
e0
ENDCHAR
STARTCHAR braceleft
ENCODING 123
SWIDTH 42 0
DWIDTH 2 0
BBX 3 7 0 -1
BITMAP
20
40
40
c0
40
40
20
ENDCHAR
STARTCHAR bar
ENCODING 124
SWIDTH 42 0
DWIDTH 2 0
BBX 1 7 1 -1
BITMAP
80
80
80
80
80
80
80
ENDCHAR
STARTCHAR braceright
ENCODING 125
SWIDTH 42 0
DWIDTH 2 0
BBX 3 7 0 -1
BITMAP
80
40
40
60
40
40
80
ENDCHAR
STARTCHAR asciitilde
ENCODING 126
SWIDTH 42 0
DWIDTH 6 0
BBX 5 2 1 2
BITMAP
48
b0
ENDCHAR
STARTCHAR Hstroke
ENCODING 161
SWIDTH 42 0
DWIDTH 6 0
BBX 6 7 0 0
BITMAP
20
44
44
fc
44
44
44
ENDCHAR
STARTCHAR breve
ENCODING 162
SWIDTH 42 0
DWIDTH 4 0
BBX 4 2 0 6
BITMAP
90
60
ENDCHAR
STARTCHAR sterling
ENCODING 163
SWIDTH 42 0
DWIDTH 5 0
BBX 4 6 1 0
BITMAP
30
40
e0
40
40
f0
ENDCHAR
STARTCHAR currency
ENCODING 164
SWIDTH 42 0
DWIDTH 4 0
BBX 5 5 0 0
BITMAP
88
70
50
70
88
ENDCHAR
STARTCHAR yen
ENCODING 165
SWIDTH 42 0
DWIDTH 6 0
BBX 5 5 1 0
BITMAP
88
50
f8
20
20
ENDCHAR
STARTCHAR Hcircumflex
ENCODING 166
SWIDTH 42 0
DWIDTH 6 0
BBX 5 9 1 0
BITMAP
20
50
00
88
88
f8
88
88
88
ENDCHAR
STARTCHAR section
ENCODING 167
SWIDTH 42 0
DWIDTH 5 0
BBX 4 8 1 -2
BITMAP
70
80
60
90
60
30
10
e0
ENDCHAR
STARTCHAR dieresis
ENCODING 168
SWIDTH 42 0
DWIDTH 2 0
BBX 4 1 0 5
BITMAP
90
ENDCHAR
STARTCHAR Iabovedot
ENCODING 169
SWIDTH 42 0
DWIDTH 2 0
BBX 1 8 1 0
BITMAP
80
00
80
80
80
80
80
80
ENDCHAR
STARTCHAR Scedilla
ENCODING 170
SWIDTH 42 0
DWIDTH 6 0
BBX 4 8 2 -2
BITMAP
70
80
e0
10
10
e0
40
80
ENDCHAR
STARTCHAR Gbreve
ENCODING 171
SWIDTH 42 0
DWIDTH 6 0
BBX 5 9 1 0
BITMAP
90
60
00
70
80
98
88
88
70
ENDCHAR
STARTCHAR Jcircumflex
ENCODING 172
SWIDTH 42 0
DWIDTH 4 0
BBX 4 9 1 0
BITMAP
20
50
00
20
20
20
20
a0
40
ENDCHAR
STARTCHAR hyphen
ENCODING 173
SWIDTH 42 0
DWIDTH 3 0
BBX 2 1 0 2
BITMAP
c0
ENDCHAR
STARTCHAR registered
ENCODING 174
SWIDTH 42 0
DWIDTH 7 0
BBX 6 7 1 -1
BITMAP
78
84
b4
b4
ac
84
78
ENDCHAR
STARTCHAR Zabovedot
ENCODING 175
SWIDTH 42 0
DWIDTH 6 0
BBX 4 8 2 0
BITMAP
20
00
f0
10
20
40
80
f0
ENDCHAR
STARTCHAR degree
ENCODING 176
SWIDTH 42 0
DWIDTH 3 0
BBX 3 3 1 3
BITMAP
40
a0
40
ENDCHAR
STARTCHAR hstroke
ENCODING 177
SWIDTH 42 0
DWIDTH 5 0
BBX 5 8 0 0
BITMAP
20
40
40
f0
48
48
48
48
ENDCHAR
STARTCHAR twosuperior
ENCODING 178
SWIDTH 42 0
DWIDTH 2 0
BBX 2 4 1 2
BITMAP
80
40
80
c0
ENDCHAR
STARTCHAR threesuperior
ENCODING 179
SWIDTH 42 0
DWIDTH 2 0
BBX 3 4 0 2
BITMAP
e0
60
20
c0
ENDCHAR
STARTCHAR acute
ENCODING 180
SWIDTH 42 0
DWIDTH 2 0
BBX 2 2 0 4
BITMAP
40
80
ENDCHAR
STARTCHAR mu
ENCODING 181
SWIDTH 42 0
DWIDTH 4 0
BBX 3 6 1 -2
BITMAP
a0
a0
a0
e0
80
80
ENDCHAR
STARTCHAR hcircumflex
ENCODING 182
SWIDTH 42 0
DWIDTH 5 0
BBX 4 10 1 0
BITMAP
20
50
00
80
80
e0
90
90
90
90
ENDCHAR
STARTCHAR periodcentered
ENCODING 183
SWIDTH 42 0
DWIDTH 2 0
BBX 1 2 1 1
BITMAP
80
80
ENDCHAR
STARTCHAR cedilla
ENCODING 184
SWIDTH 42 0
DWIDTH 2 0
BBX 2 2 0 -2
BITMAP
40
80
ENDCHAR
STARTCHAR idotless
ENCODING 185
SWIDTH 42 0
DWIDTH 2 0
BBX 1 5 1 0
BITMAP
80
80
80
80
80
ENDCHAR
STARTCHAR scedilla
ENCODING 186
SWIDTH 42 0
DWIDTH 4 0
BBX 4 7 0 -2
BITMAP
30
40
30
10
60
40
80
ENDCHAR
STARTCHAR gbreve
ENCODING 187
SWIDTH 42 0
DWIDTH 5 0
BBX 4 9 1 -1
BITMAP
90
60
00
70
90
90
70
10
60
ENDCHAR
STARTCHAR jcircumflex
ENCODING 188
SWIDTH 42 0
DWIDTH 2 0
BBX 3 10 0 -2
BITMAP
40
a0
00
40
40
40
40
40
40
80
ENDCHAR
STARTCHAR onehalf
ENCODING 189
SWIDTH 42 0
DWIDTH 7 0
BBX 7 7 0 -1
BITMAP
40
c4
48
5c
22
44
0e
ENDCHAR
STARTCHAR threequarters
ENCODING 190
SWIDTH 42 0
DWIDTH 7 0
BBX 7 7 0 -1
BITMAP
e0
64
28
d4
2c
5e
04
ENDCHAR
STARTCHAR zabovedot
ENCODING 191
SWIDTH 42 0
DWIDTH 4 0
BBX 3 7 1 0
BITMAP
40
00
e0
20
40
80
e0
ENDCHAR
STARTCHAR Agrave
ENCODING 192
SWIDTH 42 0
DWIDTH 6 0
BBX 5 9 1 0
BITMAP
40
20
00
20
20
50
70
88
88
ENDCHAR
STARTCHAR Aacute
ENCODING 193
SWIDTH 42 0
DWIDTH 6 0
BBX 5 9 1 0
BITMAP
10
20
00
20
20
50
70
88
88
ENDCHAR
STARTCHAR Acircumflex
ENCODING 194
SWIDTH 42 0
DWIDTH 6 0
BBX 5 9 1 0
BITMAP
20
50
00
20
20
50
70
88
88
ENDCHAR
STARTCHAR Atilde
ENCODING 195
SWIDTH 42 0
DWIDTH 6 0
BBX 5 9 1 0
BITMAP
28
50
00
20
20
50
70
88
88
ENDCHAR
STARTCHAR Adieresis
ENCODING 196
SWIDTH 42 0
DWIDTH 6 0
BBX 5 8 1 0
BITMAP
50
00
20
20
50
70
88
88
ENDCHAR
STARTCHAR Cabovedot
ENCODING 197
SWIDTH 42 0
DWIDTH 6 0
BBX 5 8 1 0
BITMAP
20
00
70
88
80
80
88
70
ENDCHAR
STARTCHAR Ccircumflex
ENCODING 198
SWIDTH 42 0
DWIDTH 6 0
BBX 5 9 1 0
BITMAP
20
50
00
70
88
80
80
88
70
ENDCHAR
STARTCHAR Ccedilla
ENCODING 199
SWIDTH 42 0
DWIDTH 6 0
BBX 5 8 1 -2
BITMAP
70
88
88
80
88
70
40
80
ENDCHAR
STARTCHAR Egrave
ENCODING 200
SWIDTH 42 0
DWIDTH 6 0
BBX 4 9 2 0
BITMAP
40
20
00
f0
80
e0
80
80
f0
ENDCHAR
STARTCHAR Eacute
ENCODING 201
SWIDTH 42 0
DWIDTH 6 0
BBX 4 9 2 0
BITMAP
20
40
00
f0
80
e0
80
80
f0
ENDCHAR
STARTCHAR Ecircumflex
ENCODING 202
SWIDTH 42 0
DWIDTH 6 0
BBX 4 9 2 0
BITMAP
40
a0
00
f0
80
e0
80
80
f0
ENDCHAR
STARTCHAR Edieresis
ENCODING 203
SWIDTH 42 0
DWIDTH 6 0
BBX 4 8 2 0
BITMAP
a0
00
f0
80
e0
80
80
f0
ENDCHAR
STARTCHAR Igrave
ENCODING 204
SWIDTH 42 0
DWIDTH 2 0
BBX 2 9 0 0
BITMAP
80
40
00
40
40
40
40
40
40
ENDCHAR
STARTCHAR Iacute
ENCODING 205
SWIDTH 42 0
DWIDTH 2 0
BBX 2 9 1 0
BITMAP
40
80
00
80
80
80
80
80
80
ENDCHAR
STARTCHAR Icircumflex
ENCODING 206
SWIDTH 42 0
DWIDTH 2 0
BBX 3 9 0 0
BITMAP
40
a0
00
40
40
40
40
40
40
ENDCHAR
STARTCHAR Idieresis
ENCODING 207
SWIDTH 42 0
DWIDTH 2 0
BBX 3 8 0 0
BITMAP
a0
00
40
40
40
40
40
40
ENDCHAR
STARTCHAR Eth
ENCODING 208
SWIDTH 42 0
DWIDTH 6 0
BBX 5 6 1 0
BITMAP
70
48
e8
48
48
70
ENDCHAR
STARTCHAR Ntilde
ENCODING 209
SWIDTH 42 0
DWIDTH 6 0
BBX 5 9 1 0
BITMAP
28
50
00
88
c8
a8
a8
98
88
ENDCHAR
STARTCHAR Ograve
ENCODING 210
SWIDTH 42 0
DWIDTH 6 0
BBX 5 9 1 0
BITMAP
40
20
00
70
88
88
88
88
70
ENDCHAR
STARTCHAR Oacute
ENCODING 211
SWIDTH 42 0
DWIDTH 6 0
BBX 5 9 1 0
BITMAP
10
20
00
70
88
88
88
88
70
ENDCHAR
STARTCHAR Ocircumflex
ENCODING 212
SWIDTH 42 0
DWIDTH 6 0
BBX 5 9 1 0
BITMAP
20
50
00
70
88
88
88
88
70
ENDCHAR
STARTCHAR Gabovedot
ENCODING 213
SWIDTH 42 0
DWIDTH 6 0
BBX 5 8 1 0
BITMAP
20
00
70
80
98
88
88
70
ENDCHAR
STARTCHAR Odieresis
ENCODING 214
SWIDTH 42 0
DWIDTH 6 0
BBX 5 8 1 0
BITMAP
50
00
70
88
88
88
88
70
ENDCHAR
STARTCHAR multiply
ENCODING 215
SWIDTH 42 0
DWIDTH 5 0
BBX 4 4 1 0
BITMAP
90
60
60
90
ENDCHAR
STARTCHAR Gcircumflex
ENCODING 216
SWIDTH 42 0
DWIDTH 6 0
BBX 5 9 1 0
BITMAP
20
50
00
70
80
98
88
88
70
ENDCHAR
STARTCHAR Ugrave
ENCODING 217
SWIDTH 42 0
DWIDTH 6 0
BBX 5 9 1 0
BITMAP
40
20
00
88
88
88
88
88
70
ENDCHAR
STARTCHAR Uacute
ENCODING 218
SWIDTH 42 0
DWIDTH 6 0
BBX 5 9 1 0
BITMAP
10
20
00
88
88
88
88
88
70
ENDCHAR
STARTCHAR Ucircumflex
ENCODING 219
SWIDTH 42 0
DWIDTH 6 0
BBX 5 9 1 0
BITMAP
20
50
00
88
88
88
88
88
70
ENDCHAR
STARTCHAR Udieresis
ENCODING 220
SWIDTH 42 0
DWIDTH 6 0
BBX 5 8 1 0
BITMAP
50
00
88
88
88
88
88
70
ENDCHAR
STARTCHAR Ubreve
ENCODING 221
SWIDTH 42 0
DWIDTH 6 0
BBX 5 9 1 0
BITMAP
48
30
00
88
88
88
88
88
70
ENDCHAR
STARTCHAR Scircumflex
ENCODING 222
SWIDTH 42 0
DWIDTH 6 0
BBX 4 9 2 0
BITMAP
20
50
00
70
80
e0
10
10
e0
ENDCHAR
STARTCHAR germandbls
ENCODING 223
SWIDTH 42 0
DWIDTH 6 0
BBX 4 7 2 -1
BITMAP
60
90
a0
90
90
a0
80
ENDCHAR
STARTCHAR agrave
ENCODING 224
SWIDTH 42 0
DWIDTH 4 0
BBX 4 8 1 0
BITMAP
80
40
00
c0
20
e0
a0
d0
ENDCHAR
STARTCHAR aacute
ENCODING 225
SWIDTH 42 0
DWIDTH 4 0
BBX 4 8 1 0
BITMAP
20
40
00
c0
20
e0
a0
d0
ENDCHAR
STARTCHAR acircumflex
ENCODING 226
SWIDTH 42 0
DWIDTH 4 0
BBX 4 8 1 0
BITMAP
40
a0
00
c0
20
e0
a0
d0
ENDCHAR
STARTCHAR atilde
ENCODING 227
SWIDTH 42 0
DWIDTH 4 0
BBX 5 8 0 0
BITMAP
68
b0
00
60
10
70
50
68
ENDCHAR
STARTCHAR adieresis
ENCODING 228
SWIDTH 42 0
DWIDTH 4 0
BBX 4 7 1 0
BITMAP
a0
00
c0
20
e0
a0
d0
ENDCHAR
STARTCHAR cabovedot
ENCODING 229
SWIDTH 42 0
DWIDTH 4 0
BBX 3 7 1 0
BITMAP
20
00
60
80
80
80
60
ENDCHAR
STARTCHAR ccircumflex
ENCODING 230
SWIDTH 42 0
DWIDTH 4 0
BBX 4 8 1 0
BITMAP
20
50
00
60
80
80
80
60
ENDCHAR
STARTCHAR ccedilla
ENCODING 231
SWIDTH 42 0
DWIDTH 4 0
BBX 3 7 1 -2
BITMAP
60
80
80
80
60
40
80
ENDCHAR
STARTCHAR egrave
ENCODING 232
SWIDTH 42 0
DWIDTH 4 0
BBX 3 8 1 0
BITMAP
40
20
00
40
a0
e0
80
60
ENDCHAR
STARTCHAR eacute
ENCODING 233
SWIDTH 42 0
DWIDTH 4 0
BBX 3 8 1 0
BITMAP
20
40
00
40
a0
e0
80
60
ENDCHAR
STARTCHAR ecircumflex
ENCODING 234
SWIDTH 42 0
DWIDTH 4 0
BBX 3 8 1 0
BITMAP
40
a0
00
40
a0
e0
80
60
ENDCHAR
STARTCHAR edieresis
ENCODING 235
SWIDTH 42 0
DWIDTH 4 0
BBX 3 7 1 0
BITMAP
a0
00
40
a0
e0
80
60
ENDCHAR
STARTCHAR igrave
ENCODING 236
SWIDTH 42 0
DWIDTH 2 0
BBX 2 8 0 0
BITMAP
80
40
00
40
40
40
40
40
ENDCHAR
STARTCHAR iacute
ENCODING 237
SWIDTH 42 0
DWIDTH 2 0
BBX 2 8 1 0
BITMAP
40
80
00
80
80
80
80
80
ENDCHAR
STARTCHAR icircumflex
ENCODING 238
SWIDTH 42 0
DWIDTH 2 0
BBX 3 8 0 0
BITMAP
40
a0
00
40
40
40
40
40
ENDCHAR
STARTCHAR idieresis
ENCODING 239
SWIDTH 42 0
DWIDTH 2 0
BBX 3 7 0 0
BITMAP
a0
00
40
40
40
40
40
ENDCHAR
STARTCHAR eth
ENCODING 240
SWIDTH 42 0
DWIDTH 5 0
BBX 4 8 1 0
BITMAP
90
60
a0
70
90
90
90
60
ENDCHAR
STARTCHAR ntilde
ENCODING 241
SWIDTH 42 0
DWIDTH 5 0
BBX 4 8 1 0
BITMAP
50
a0
00
e0
90
90
90
90
ENDCHAR
STARTCHAR ograve
ENCODING 242
SWIDTH 42 0
DWIDTH 5 0
BBX 4 8 1 0
BITMAP
40
20
00
60
90
90
90
60
ENDCHAR
STARTCHAR oacute
ENCODING 243
SWIDTH 42 0
DWIDTH 5 0
BBX 4 8 1 0
BITMAP
10
20
00
60
90
90
90
60
ENDCHAR
STARTCHAR ocircumflex
ENCODING 244
SWIDTH 42 0
DWIDTH 5 0
BBX 4 8 1 0
BITMAP
40
a0
00
60
90
90
90
60
ENDCHAR
STARTCHAR gabovedot
ENCODING 245
SWIDTH 42 0
DWIDTH 5 0
BBX 4 8 1 -1
BITMAP
20
00
70
90
90
70
10
60
ENDCHAR
STARTCHAR odieresis
ENCODING 246
SWIDTH 42 0
DWIDTH 5 0
BBX 4 7 1 0
BITMAP
90
00
60
90
90
90
60
ENDCHAR
STARTCHAR divide
ENCODING 247
SWIDTH 42 0
DWIDTH 5 0
BBX 4 5 1 0
BITMAP
20
00
f0
00
20
ENDCHAR
STARTCHAR gcircumflex
ENCODING 248
SWIDTH 42 0
DWIDTH 5 0
BBX 4 9 1 -1
BITMAP
20
50
00
70
90
90
70
10
60
ENDCHAR
STARTCHAR ugrave
ENCODING 249
SWIDTH 42 0
DWIDTH 4 0
BBX 3 8 1 0
BITMAP
80
40
00
a0
a0
a0
a0
60
ENDCHAR
STARTCHAR uacute
ENCODING 250
SWIDTH 42 0
DWIDTH 4 0
BBX 3 8 1 0
BITMAP
20
40
00
a0
a0
a0
a0
60
ENDCHAR
STARTCHAR ucircumflex
ENCODING 251
SWIDTH 42 0
DWIDTH 4 0
BBX 3 8 1 0
BITMAP
40
a0
00
a0
a0
a0
a0
60
ENDCHAR
STARTCHAR udieresis
ENCODING 252
SWIDTH 42 0
DWIDTH 4 0
BBX 3 7 1 0
BITMAP
a0
00
a0
a0
a0
a0
60
ENDCHAR
STARTCHAR ubreve
ENCODING 253
SWIDTH 42 0
DWIDTH 4 0
BBX 4 8 1 0
BITMAP
90
60
00
a0
a0
a0
a0
60
ENDCHAR
STARTCHAR scircumflex
ENCODING 254
SWIDTH 42 0
DWIDTH 4 0
BBX 4 8 1 0
BITMAP
20
50
00
60
80
60
20
c0
ENDCHAR
STARTCHAR abovedot
ENCODING 255
SWIDTH 42 0
DWIDTH 2 0
BBX 1 1 1 6
BITMAP
80
ENDCHAR
ENDFONT
